# xmcd CD database file
#
# Track frame offsets:
#	150
#	27983
#	59013
#	86710
#	114800
#	136360
#	164585
#	195663
#	220435
#	243615
#	267695
#	282668
#	304470
#
# Disc length: 4319 seconds
#
# Revision: 3
# Processed by: cddbd v1.5.2PL0 Copyright (c) Steve Scherf et al.
# Submitted via: CDex 1.51
#
DISCID=d510dd0d
DTITLE=Leonard Cohen In Contert - Cohen Live
DYEAR=1994
DGENRE=Rock
TTITLE0=Dance Me to the End of Love
TTITLE1=Bird On the Wire
TTITLE2=Everybody Knows
TTITLE3=Joan of Arc
TTITLE4=There is a War
TTITLE5=Sisters of Mercy
TTITLE6=Hallelujah
TTITLE7=I'm Your Man
TTITLE8=Who by Fire?
TTITLE9=One of Us Cannot Be Wrong
TTITLE10=If It Be Your Will
TTITLE11=Heart with No Companion
TTITLE12=Suzanne
EXTD=YEAR: 1994
EXTT0=
EXTT1=
EXTT2=
EXTT3=
EXTT4=
EXTT5=
EXTT6=
EXTT7=
EXTT8=
EXTT9=
EXTT10=
EXTT11=
EXTT12=
PLAYORDER=
